<svg id="layer-icon" xmlns="http://www.w3.org/2000/svg" width="31.913" height="28.398" viewBox="0 0 31.913 28.398">
  <g id="Group_248" data-name="Group 248">
    <path id="Path_202" data-name="Path 202" d="M85.2,392.879a1.761,1.761,0,0,0-.978-1.583l-2.377-1.188,2.377-1.188h0a1.77,1.77,0,0,0,0-3.166l-13.414-6.707a3.52,3.52,0,0,0-3.128,0l-13.414,6.708a1.77,1.77,0,0,0,0,3.166l2.376,1.188L54.267,391.3a1.77,1.77,0,0,0,0,3.166l2.376,1.188-2.376,1.188a1.77,1.77,0,0,0,0,3.166l13.414,6.707a3.518,3.518,0,0,0,3.128,0L84.224,400a1.77,1.77,0,0,0,0-3.166l-2.377-1.188,2.377-1.188A1.761,1.761,0,0,0,85.2,392.879Zm-30.279-5.272a.3.3,0,0,1,0-.542l13.414-6.707a2.042,2.042,0,0,1,1.817,0l13.414,6.707a.3.3,0,0,1,0,.542l-13.414,6.707a2.041,2.041,0,0,1-1.817,0Zm28.644,10.543a.3.3,0,0,1,0,.541L70.154,405.4a2.041,2.041,0,0,1-1.817,0l-13.414-6.707a.3.3,0,0,1,0-.542l3.36-1.68,9.4,4.7a3.518,3.518,0,0,0,3.128,0l9.4-4.7Zm0-5-13.414,6.707a2.041,2.041,0,0,1-1.817,0L54.923,393.15a.3.3,0,0,1,0-.542l3.36-1.68,9.4,4.7a3.518,3.518,0,0,0,3.128,0l9.4-4.7,3.36,1.68a.3.3,0,0,1,0,.542Z" transform="translate(-53.289 -378.68)" fill="#fff"/>
  </g>
</svg>
