<svg id="mbps-icon" xmlns="http://www.w3.org/2000/svg" xmlns:xlink="http://www.w3.org/1999/xlink" width="26.223" height="26.223" viewBox="0 0 26.223 26.223">
  <defs>
    <clipPath id="clip-path">
      <path id="Path_23" data-name="Path 23" d="M139.21,139.21h26.223v26.223H139.21Z" transform="translate(-139.21 -139.21)" fill="#fff"/>
    </clipPath>
  </defs>
  <path id="Path_19" data-name="Path 19" d="M349.678,348.041a1.639,1.639,0,1,1-1.639-1.639,1.639,1.639,0,0,1,1.639,1.639" transform="translate(-334.928 -334.929)" fill="#fff"/>
  <path id="Path_20" data-name="Path 20" d="M296.864,290.857l-1.475,1.475h0a3.277,3.277,0,1,1-3.483-3.483l1.475-1.475a4.611,4.611,0,0,0-1.262-.172,4.917,4.917,0,1,0,4.917,4.917,4.6,4.6,0,0,0-.172-1.262Z" transform="translate(-279.008 -279.008)" fill="#fff"/>
  <path id="Path_21" data-name="Path 21" d="M244.356,235.35a2.525,2.525,0,0,1-1.647.082,5.954,5.954,0,0,1,.049.77,6.556,6.556,0,1,1-6.556-6.556,6,6,0,0,1,.77.049,2.418,2.418,0,0,1,.074-1.647c-.279-.024-.557-.041-.844-.041A8.194,8.194,0,1,0,244.4,236.2c0-.287-.016-.574-.041-.852Z" transform="translate(-223.091 -223.091)" fill="#fff"/>
  <g id="Group_27" data-name="Group 27" clip-path="url(#clip-path)">
    <path id="Path_22" data-name="Path 22" d="M164.569,147.641l-2.622,2.622a9.82,9.82,0,1,1-7.572-7.572L157,140.069a12.826,12.826,0,0,0-4.671-.869,13.111,13.111,0,1,0,13.112,13.111,12.824,12.824,0,0,0-.869-4.671Z" transform="translate(-139.215 -139.201)" fill="#fff"/>
  </g>
  <path id="Path_24" data-name="Path 24" d="M388.479,152.139a.819.819,0,0,0-.436-.6l-1.708-.875.725-.725a.82.82,0,1,0-1.159-1.159l-.725.725L384.3,147.8a.819.819,0,0,0-1.309-.206l-4.625,4.625a.819.819,0,0,0-.15.953l1.116,2.178-3.266,3.265a.82.82,0,1,0,1.159,1.159l3.266-3.265,2.178,1.116a.819.819,0,0,0,.953-.15l4.625-4.625a.819.819,0,0,0,.23-.707Z" transform="translate(-362.717 -146.899)" fill="#fff"/>
</svg>
