<svg id="phone-icon" xmlns="http://www.w3.org/2000/svg" xmlns:xlink="http://www.w3.org/1999/xlink" width="28" height="28" viewBox="0 0 28 28">
  <defs>
    <linearGradient id="linear-gradient" x1="0.5" x2="0.5" y2="1" gradientUnits="objectBoundingBox">
      <stop offset="0" stop-color="#ff4237"/>
      <stop offset="1" stop-color="#a4130a"/>
    </linearGradient>
  </defs>
  <circle id="Ellipse_22" data-name="Ellipse 22" cx="14" cy="14" r="14" fill="url(#linear-gradient)"/>
  <g id="Group_347" data-name="Group 347" transform="translate(-343.965 -11.259)">
    <g id="Group_88" data-name="Group 88" transform="translate(352.204 19.511)">
      <g id="Group_87" data-name="Group 87">
        <path id="Path_38" data-name="Path 38" d="M363.468,28.6l-1.779-1.78a.928.928,0,0,0-1.308.025l-.9.9-.177-.1a8.406,8.406,0,0,1-3.719-3.72c-.033-.06-.065-.118-.1-.173l.6-.6.3-.3a.927.927,0,0,0,.024-1.308l-1.779-1.78a.927.927,0,0,0-1.308.025l-.5.5.014.014a2.905,2.905,0,0,0-.413.729,3.036,3.036,0,0,0-.184.739c-.235,1.948.655,3.728,3.071,6.144,3.339,3.339,6.03,3.087,6.146,3.074a3,3,0,0,0,.742-.186,2.887,2.887,0,0,0,.726-.411l.011.01.508-.5A.929.929,0,0,0,363.468,28.6Z" transform="translate(-352.204 -19.511)" fill="#fff"/>
      </g>
    </g>
  </g>
</svg>
