<svg id="rocket-icon" xmlns="http://www.w3.org/2000/svg" width="32.462" height="32.462" viewBox="0 0 32.462 32.462">
  <g id="Group_29" data-name="Group 29" transform="translate(15.951 15.243)">
    <g id="Group_28" data-name="Group 28" transform="translate(0 0)">
      <path id="Path_25" data-name="Path 25" d="M636.632,334.594a.634.634,0,1,0,0,.9A.634.634,0,0,0,636.632,334.594Z" transform="translate(-635.549 -334.408)" fill="#fff"/>
    </g>
  </g>
  <g id="Group_31" data-name="Group 31" transform="translate(19.693 6.43)">
    <g id="Group_30" data-name="Group 30" transform="translate(0 0)">
      <path id="Path_26" data-name="Path 26" d="M646.99,321.133a3.17,3.17,0,1,0,0,4.483A3.169,3.169,0,0,0,646.99,321.133Zm-.9,3.587a1.9,1.9,0,1,1,0-2.69A1.9,1.9,0,0,1,646.093,324.719Z" transform="translate(-641.58 -320.203)" fill="#fff"/>
    </g>
  </g>
  <g id="Group_33" data-name="Group 33" transform="translate(6.088)">
    <g id="Group_32" data-name="Group 32" transform="translate(0)">
      <path id="Path_27" data-name="Path 27" d="M645.841,310.026a.633.633,0,0,0-.472-.185,28.141,28.141,0,0,0-7.614,1.577A21.23,21.23,0,0,0,629.7,316.3c-.469.469-.925.967-1.362,1.483a4.648,4.648,0,0,0-4.778-.275c-2.415,1.292-3.909,4.8-3.909,7.31a.634.634,0,0,0,.392.586.625.625,0,0,0,.243.048.633.633,0,0,0,.448-.186,4.035,4.035,0,0,1,3.357-1.126l.222.222a22.235,22.235,0,0,0-1.047,3.08,1.793,1.793,0,0,0,.077,1.1,6.008,6.008,0,0,0-1.712,1.207c-1.632,1.632-1.963,5.609-1.977,5.778a.634.634,0,0,0,.632.684l.05,0c.169-.013,4.147-.344,5.778-1.977a6,6,0,0,0,1.207-1.712,1.785,1.785,0,0,0,1.1.076,22.336,22.336,0,0,0,3.079-1.047l.222.222a4.038,4.038,0,0,1-1.126,3.357.634.634,0,0,0,.448,1.082c2.51,0,6.018-1.494,7.31-3.909a4.646,4.646,0,0,0-.275-4.777c.517-.437,1.015-.893,1.484-1.363a21.241,21.241,0,0,0,4.885-8.055,28.155,28.155,0,0,0,1.576-7.614A.634.634,0,0,0,645.841,310.026Zm-24.772,13.431a7.327,7.327,0,0,1,3.09-4.828,3.378,3.378,0,0,1,3.376.16,25.626,25.626,0,0,0-2.664,4.342.67.67,0,0,0-.336-.2A5.417,5.417,0,0,0,621.069,323.457Zm4.148,9.883c-.872.872-2.917,1.332-4.21,1.52.188-1.293.648-3.338,1.52-4.21a4.577,4.577,0,0,1,1.624-1.067l2.133,2.134A4.567,4.567,0,0,1,625.217,333.339Zm2.891-1.967a.6.6,0,0,1-.554-.179l-1.242-1.242-1.637-1.637a.594.594,0,0,1-.18-.554,20.508,20.508,0,0,1,.792-2.422l5.243,5.244A20.618,20.618,0,0,1,628.108,331.372Zm9.13.336a7.328,7.328,0,0,1-4.828,3.09,5.394,5.394,0,0,0,.52-3.482.664.664,0,0,0-.193-.321,25.619,25.619,0,0,0,4.343-2.664A3.378,3.378,0,0,1,637.238,331.708Zm1.43-6.438a23.025,23.025,0,0,1-1.828,1.64,24.336,24.336,0,0,1-5.054,3.133l-5.961-5.961a24.361,24.361,0,0,1,3.133-5.054A23.029,23.029,0,0,1,630.6,317.2a19.766,19.766,0,0,1,7.207-4.449l5.312,5.313A19.77,19.77,0,0,1,638.668,325.27Zm4.906-8.545-4.432-4.431a28.509,28.509,0,0,1,5.564-1.132A28.547,28.547,0,0,1,643.574,316.725Z" transform="translate(-619.652 -309.84)" fill="#fff"/>
    </g>
  </g>
  <g id="Group_35" data-name="Group 35" transform="translate(12.365 26.003)">
    <g id="Group_34" data-name="Group 34" transform="translate(0 0)">
      <path id="Path_28" data-name="Path 28" d="M632.644,351.935a.634.634,0,0,0-.9,0l-1.793,1.794a.634.634,0,0,0,.9.9l1.793-1.794A.634.634,0,0,0,632.644,351.935Z" transform="translate(-629.769 -351.75)" fill="#fff"/>
    </g>
  </g>
  <g id="Group_37" data-name="Group 37" transform="translate(3.397 17.036)">
    <g id="Group_36" data-name="Group 36" transform="translate(0)">
      <path id="Path_29" data-name="Path 29" d="M618.192,337.484a.634.634,0,0,0-.9,0l-1.794,1.793a.634.634,0,1,0,.9.9l1.794-1.793A.634.634,0,0,0,618.192,337.484Z" transform="translate(-615.316 -337.298)" fill="#fff"/>
    </g>
  </g>
  <g id="Group_39" data-name="Group 39" transform="translate(5.38 26.9)">
    <g id="Group_38" data-name="Group 38" transform="translate(0 0)">
      <path id="Path_30" data-name="Path 30" d="M623.888,353.381a.634.634,0,0,0-.9,0l-4.295,4.294a.634.634,0,1,0,.9.9l4.295-4.294A.634.634,0,0,0,623.888,353.381Z" transform="translate(-618.511 -353.196)" fill="#fff"/>
    </g>
  </g>
  <g id="Group_41" data-name="Group 41" transform="translate(0.308 26.9)">
    <g id="Group_40" data-name="Group 40" transform="translate(0 0)">
      <path id="Path_31" data-name="Path 31" d="M615.713,353.381a.634.634,0,0,0-.9,0l-4.295,4.294a.634.634,0,1,0,.9.9l4.295-4.294A.634.634,0,0,0,615.713,353.381Z" transform="translate(-610.336 -353.196)" fill="#fff"/>
    </g>
  </g>
  <g id="Group_43" data-name="Group 43" transform="translate(0 21.52)">
    <g id="Group_42" data-name="Group 42" transform="translate(0 0)">
      <path id="Path_32" data-name="Path 32" d="M615.217,344.709a.635.635,0,0,0-.9,0L610.025,349a.634.634,0,1,0,.9.9l4.295-4.295A.634.634,0,0,0,615.217,344.709Z" transform="translate(-609.84 -344.524)" fill="#fff"/>
    </g>
  </g>
  <g id="Group_45" data-name="Group 45" transform="translate(17.745 12.553)">
    <g id="Group_44" data-name="Group 44" transform="translate(0 0)">
      <path id="Path_33" data-name="Path 33" d="M640.419,330.258a.634.634,0,0,0-.9,0l-.9.9a.634.634,0,0,0,.9.9l.9-.9A.634.634,0,0,0,640.419,330.258Z" transform="translate(-638.44 -330.073)" fill="#fff"/>
    </g>
  </g>
</svg>
